<svg width="487" height="175" viewBox="0 0 487 175" fill="none" xmlns="http://www.w3.org/2000/svg">
<g clip-path="url(#clip0_78_1279)">
<path d="M78.534 64.5198C89.4046 72.4687 96.4831 85.2798 96.4831 99.6552C96.4831 123.544 77.1432 142.95 53.5063 142.95H53.3378C33.3241 142.95 16.3863 129.082 11.583 110.563C10.6982 107.096 10.3612 103.46 10.1926 99.6552V35.2193C10.1926 27.4819 16.3808 21.1867 24.0547 20.8574H25.3151C32.9439 21.1867 39.0123 27.4819 39.0123 35.2193V99.6552C39.0123 104.137 41.0768 108.153 44.3632 110.733C47.8182 113.692 50.894 113.861 53.3378 114.031C61.2587 114.031 67.832 107.604 67.832 99.6552C67.832 94.2852 65.4302 91.1565 62.3124 88.5773C60.0792 86.6747 60.0792 86.6747 58.6888 85.2798C54.8967 81.1363 53.8434 74.7096 56.4557 69.3398C59.8685 62.2367 68.5058 59.1502 75.5843 62.5749H75.7529L76.09 62.9555C76.9751 63.4628 77.8175 63.9701 78.534 64.5198ZM377.336 20.8574C369.679 21.1867 363.81 27.4819 363.81 35.2193V128.575C363.81 132.55 364.316 135.34 367.939 138.807C370.72 141.386 374.343 142.95 377.967 142.95C381.591 142.95 385.214 141.555 387.953 138.807L445.76 80.798C451.28 75.2168 451.28 66.0419 445.76 60.5032C440.241 54.9644 431.266 54.9644 425.579 60.5032L392.124 94.1163V35.2193C392.124 27.4819 386.215 21.1867 378.595 20.8574H377.336ZM266.632 80.798L233.178 114.369H259.217C266.969 114.369 273.374 120.796 273.374 128.744C273.374 136.524 266.969 142.95 259.217 142.95H201.241C193.446 142.95 187.084 136.524 187.084 128.744V127.18C186.915 123.205 188.305 119.062 191.213 116.102L246.45 60.5032C252.139 54.9644 261.113 54.9644 266.632 60.5032C272.152 66.2111 272.152 75.2168 266.632 80.798ZM155.664 56.3597C163.417 56.5288 169.652 62.9555 169.652 70.566C169.652 78.5148 163.248 84.9415 155.495 84.9415H156.381C148.754 84.9415 142.729 90.6494 142.224 98.0904V128.744C142.224 136.524 135.819 142.95 127.898 142.95C120.103 142.95 113.741 136.524 113.741 128.744V70.7351C113.741 62.7864 120.103 56.3597 127.898 56.3597C131.859 56.3597 135.314 57.924 137.884 60.5032C143.403 57.924 149.471 56.5288 155.664 56.3597ZM215.398 70.7351C215.398 78.5148 208.993 84.9415 201.241 84.9415C193.278 84.9415 186.915 78.5148 186.915 70.7351C186.915 62.7864 193.278 56.3597 201.241 56.3597C208.993 56.3597 215.398 62.7864 215.398 70.7351ZM332.559 56.3597C340.312 56.5288 346.548 62.9555 346.548 70.566C346.548 78.5148 340.143 84.9415 332.391 84.9415H333.276C325.649 84.9415 319.624 90.6494 319.119 98.0904V128.744C319.119 136.524 312.714 142.95 304.793 142.95C296.998 142.95 290.636 136.524 290.636 128.744V70.7351C290.636 62.7864 296.998 56.3597 304.793 56.3597C308.754 56.3597 312.209 57.924 314.779 60.5032C320.298 57.924 326.366 56.5288 332.559 56.3597ZM421.449 128.744C421.449 120.796 427.811 114.369 435.775 114.369C443.528 114.369 449.932 120.796 449.932 128.744C449.932 136.524 443.528 142.95 435.775 142.95C427.811 142.95 421.449 136.524 421.449 128.744Z" fill="#FF4000"/>
</g>
<path d="M68.3784 59.4329C79.249 67.3818 86.3274 80.1929 86.3274 94.5683C86.3274 118.457 66.9875 137.864 43.3506 137.864H43.1821C23.1685 137.864 6.23066 123.995 1.42741 105.476C0.5426 102.009 0.205525 98.3736 0.0369873 94.5683V30.1324C0.0369873 22.395 6.22512 16.0997 13.8991 15.7705H15.1595C22.7882 16.0997 28.8566 22.395 28.8566 30.1324V94.5683C28.8566 99.0497 30.9212 103.067 34.2076 105.646C37.6626 108.605 40.7384 108.774 43.1821 108.944C51.1031 108.944 57.6763 102.517 57.6763 94.5683C57.6763 89.1983 55.2745 86.0696 52.1568 83.4904C49.9235 81.5878 49.9235 81.5878 48.5332 80.1929C44.7411 76.0494 43.6878 69.6227 46.3 64.2529C49.7129 57.1498 58.3502 54.0633 65.4287 57.488H65.5972L65.9344 57.8685C66.8195 58.3759 67.6619 58.8832 68.3784 59.4329ZM367.18 15.7705C359.523 16.0997 353.654 22.395 353.654 30.1324V123.488C353.654 127.463 354.16 130.253 357.784 133.72C360.564 136.299 364.188 137.864 367.811 137.864C371.435 137.864 375.058 136.468 377.797 133.72L435.605 75.7111C441.124 70.1299 441.124 60.955 435.605 55.4162C430.085 49.8775 421.111 49.8775 415.423 55.4162L381.968 89.0294V30.1324C381.968 22.395 376.06 16.0997 368.44 15.7705H367.18ZM256.477 75.7111L223.022 109.282H249.061C256.814 109.282 263.218 115.709 263.218 123.657C263.218 131.437 256.814 137.864 249.061 137.864H191.085C183.29 137.864 176.928 131.437 176.928 123.657V122.093C176.759 118.119 178.15 113.975 181.057 111.015L236.295 55.4162C241.983 49.8775 250.958 49.8775 256.477 55.4162C261.996 61.1241 261.996 70.1299 256.477 75.7111ZM145.508 51.2728C153.261 51.4419 159.497 57.8685 159.497 65.4791C159.497 73.4279 153.093 79.8546 145.34 79.8546H146.225C138.599 79.8546 132.573 85.5624 132.068 93.0035V123.657C132.068 131.437 125.663 137.864 117.742 137.864C109.947 137.864 103.585 131.437 103.585 123.657V65.6482C103.585 57.6994 109.947 51.2728 117.742 51.2728C121.703 51.2728 125.158 52.8371 127.728 55.4162C133.248 52.8371 139.315 51.4419 145.508 51.2728ZM205.242 65.6482C205.242 73.4279 198.838 79.8546 191.085 79.8546C183.122 79.8546 176.759 73.4279 176.759 65.6482C176.759 57.6994 183.122 51.2728 191.085 51.2728C198.838 51.2728 205.242 57.6994 205.242 65.6482ZM322.403 51.2728C330.156 51.4419 336.392 57.8685 336.392 65.4791C336.392 73.4279 329.988 79.8546 322.235 79.8546H323.12C315.494 79.8546 309.469 85.5624 308.963 93.0035V123.657C308.963 131.437 302.559 137.864 294.637 137.864C286.842 137.864 280.48 131.437 280.48 123.657V65.6482C280.48 57.6994 286.842 51.2728 294.637 51.2728C298.598 51.2728 302.053 52.8371 304.623 55.4162C310.143 52.8371 316.21 51.4419 322.403 51.2728ZM411.294 123.658C411.294 115.709 417.656 109.282 425.619 109.282C433.372 109.282 439.776 115.709 439.776 123.658C439.776 131.437 433.372 137.864 425.619 137.864C417.656 137.864 411.294 131.437 411.294 123.658Z" fill="white"/>
<defs>
<clipPath id="clip0_78_1279">
<rect width="439.739" height="122.093" fill="white" transform="translate(10.1926 20.8574)"/>
</clipPath>
</defs>
</svg>
