<svg width="173" height="58" viewBox="0 0 173 58" fill="none" xmlns="http://www.w3.org/2000/svg">
<g clip-path="url(#clip0_144_777)">
<path d="M37.628 21.3837C41.2308 24.0182 43.5767 28.2642 43.5767 33.0286C43.5767 40.946 37.1671 47.3779 29.3334 47.3779H29.2776C22.6447 47.3779 17.0312 42.7816 15.4393 36.6439C15.1461 35.4948 15.0344 34.2898 14.9785 33.0286V11.6727C14.9785 9.10832 17.0294 7.0219 19.5727 6.91278H19.9904C22.5187 7.0219 24.5298 9.10832 24.5298 11.6727V33.0286C24.5298 34.5139 25.2141 35.8452 26.3032 36.7C27.4483 37.6809 28.4677 37.7369 29.2776 37.7931C31.9027 37.7931 34.0812 35.6631 34.0812 33.0286C34.0812 31.2488 33.2852 30.2119 32.2519 29.3571C31.5118 28.7265 31.5118 28.7265 31.051 28.2642C29.7942 26.8909 29.4452 24.7609 30.3109 22.9812C31.442 20.627 34.3045 19.6041 36.6505 20.7391H36.7063L36.8181 20.8653C37.1114 21.0334 37.3906 21.2016 37.628 21.3837ZM136.656 6.91278C134.119 7.0219 132.174 9.10832 132.174 11.6727V42.6135C132.174 43.9308 132.341 44.8556 133.542 46.0046C134.464 46.8594 135.665 47.3779 136.865 47.3779C138.066 47.3779 139.267 46.9154 140.175 46.0046L159.333 26.7788C161.163 24.929 161.163 21.8882 159.333 20.0525C157.504 18.2168 154.53 18.2168 152.645 20.0525L141.557 31.1929V11.6727C141.557 9.10832 139.599 7.0219 137.074 6.91278H136.656ZM99.9671 26.7788L88.8798 37.9052H97.5096C100.079 37.9052 102.201 40.0352 102.201 42.6694C102.201 45.2479 100.079 47.3779 97.5096 47.3779H78.2952C75.7118 47.3779 73.6033 45.2479 73.6033 42.6694V42.151C73.5474 40.8338 74.0082 39.4606 74.9718 38.4796L93.2785 20.0525C95.1637 18.2168 98.138 18.2168 99.9671 20.0525C101.796 21.9443 101.796 24.929 99.9671 26.7788ZM63.1903 18.6792C65.7597 18.7353 67.8263 20.8653 67.8263 23.3876C67.8263 26.0221 65.7039 28.1521 63.1344 28.1521H63.4278C60.9002 28.1521 58.9033 30.0438 58.7359 32.51V42.6694C58.7359 45.2479 56.6133 47.3779 53.9882 47.3779C51.4048 47.3779 49.2963 45.2479 49.2963 42.6694V23.4437C49.2963 20.8092 51.4048 18.6792 53.9882 18.6792C55.3008 18.6792 56.4458 19.1977 57.2975 20.0525C59.1268 19.1977 61.1377 18.7353 63.1903 18.6792ZM82.987 23.4437C82.987 26.0221 80.8646 28.1521 78.2952 28.1521C75.6561 28.1521 73.5474 26.0221 73.5474 23.4437C73.5474 20.8092 75.6561 18.6792 78.2952 18.6792C80.8646 18.6792 82.987 20.8092 82.987 23.4437ZM121.816 18.6792C124.386 18.7353 126.453 20.8653 126.453 23.3876C126.453 26.0221 124.33 28.1521 121.761 28.1521H122.054C119.526 28.1521 117.53 30.0438 117.362 32.51V42.6694C117.362 45.2479 115.24 47.3779 112.614 47.3779C110.031 47.3779 107.922 45.2479 107.922 42.6694V23.4437C107.922 20.8092 110.031 18.6792 112.614 18.6792C113.927 18.6792 115.072 19.1977 115.924 20.0525C117.753 19.1977 119.764 18.7353 121.816 18.6792ZM151.276 42.6696C151.276 40.0352 153.385 37.9052 156.024 37.9052C158.593 37.9052 160.716 40.0352 160.716 42.6696C160.716 45.2479 158.593 47.3779 156.024 47.3779C153.385 47.3779 151.276 45.2479 151.276 42.6696Z" fill="black"/>
</g>
<path d="M34.2609 19.6977C37.8636 22.3322 40.2095 26.5782 40.2095 31.3426C40.2095 39.2599 33.7999 45.6919 25.9662 45.6919H25.9104C19.2775 45.6919 13.664 41.0955 12.0721 34.9578C11.7789 33.8088 11.6672 32.6038 11.6113 31.3426V9.98669C11.6113 7.42228 13.6622 5.33586 16.2055 5.22675H16.6232C19.1515 5.33586 21.1627 7.42228 21.1627 9.98669V31.3426C21.1627 32.8278 21.8469 34.1591 22.9361 35.014C24.0811 35.9949 25.1005 36.0509 25.9104 36.107C28.5355 36.107 30.714 33.977 30.714 31.3426C30.714 29.5628 29.918 28.5259 28.8847 27.6711C28.1446 27.0405 28.1446 27.0405 27.6838 26.5782C26.4271 25.2049 26.078 23.0749 26.9437 21.2952C28.0748 18.941 30.9373 17.9181 33.2833 19.0531H33.3391L33.4509 19.1792C33.7442 19.3474 34.0234 19.5155 34.2609 19.6977ZM133.289 5.22675C130.751 5.33586 128.806 7.42228 128.806 9.98669V40.9274C128.806 42.2447 128.974 43.1695 130.175 44.3186C131.096 45.1734 132.297 45.6919 133.498 45.6919C134.699 45.6919 135.9 45.2294 136.808 44.3186L155.966 25.0928C157.795 23.243 157.795 20.2022 155.966 18.3665C154.137 16.5308 151.163 16.5308 149.278 18.3665L138.19 29.5068V9.98669C138.19 7.42228 136.232 5.33586 133.706 5.22675H133.289ZM96.5999 25.0928L85.5126 36.2191H94.1424C96.7117 36.2191 98.8343 38.3491 98.8343 40.9834C98.8343 43.5619 96.7117 45.6919 94.1424 45.6919H74.928C72.3446 45.6919 70.2361 43.5619 70.2361 40.9834V40.4649C70.1802 39.1478 70.641 37.7745 71.6046 36.7936L89.9113 18.3665C91.7965 16.5308 94.7708 16.5308 96.5999 18.3665C98.4292 20.2582 98.4292 23.243 96.5999 25.0928ZM59.8231 16.9932C62.3925 17.0493 64.4591 19.1792 64.4591 21.7016C64.4591 24.3361 62.3367 26.466 59.7673 26.466H60.0606C57.5331 26.466 55.5362 28.3578 55.3687 30.824V40.9834C55.3687 43.5619 53.2461 45.6919 50.621 45.6919C48.0376 45.6919 45.9291 43.5619 45.9291 40.9834V21.7576C45.9291 19.1232 48.0376 16.9932 50.621 16.9932C51.9336 16.9932 53.0786 17.5117 53.9304 18.3665C55.7596 17.5117 57.7705 17.0493 59.8231 16.9932ZM79.6198 21.7576C79.6198 24.3361 77.4974 26.466 74.928 26.466C72.2889 26.466 70.1802 24.3361 70.1802 21.7576C70.1802 19.1232 72.2889 16.9932 74.928 16.9932C77.4974 16.9932 79.6198 19.1232 79.6198 21.7576ZM118.449 16.9932C121.019 17.0493 123.085 19.1792 123.085 21.7016C123.085 24.3361 120.963 26.466 118.394 26.466H118.687C116.159 26.466 114.162 28.3578 113.995 30.824V40.9834C113.995 43.5619 111.872 45.6919 109.247 45.6919C106.664 45.6919 104.555 43.5619 104.555 40.9834V21.7576C104.555 19.1232 106.664 16.9932 109.247 16.9932C110.56 16.9932 111.705 17.5117 112.556 18.3665C114.386 17.5117 116.397 17.0493 118.449 16.9932ZM147.909 40.9836C147.909 38.3491 150.018 36.2191 152.657 36.2191C155.226 36.2191 157.349 38.3491 157.349 40.9836C157.349 43.5619 155.226 45.6919 152.657 45.6919C150.018 45.6919 147.909 43.5619 147.909 40.9836Z" fill="white"/>
<defs>
<clipPath id="clip0_144_777">
<rect width="145.737" height="40.4651" fill="white" transform="translate(14.9785 6.91278)"/>
</clipPath>
</defs>
</svg>
