<svg width="133" height="37" viewBox="0 0 133 37" fill="none" xmlns="http://www.w3.org/2000/svg">
<path id="Path" d="M21.0926 13.66C24.3621 16.022 26.4911 19.8287 26.4911 24.1002C26.4911 31.1985 20.6743 36.9651 13.5651 36.9651H13.5144C7.49502 36.9651 2.40069 32.8443 0.956033 27.3415C0.689913 26.3113 0.588532 25.2309 0.537842 24.1002V4.95357C0.537842 2.65445 2.39902 0.783866 4.70709 0.686035H5.08618C7.38064 0.783866 9.20581 2.65445 9.20581 4.95357V24.1002C9.20581 25.4318 9.82676 26.6254 10.8152 27.3918C11.8543 28.2713 12.7794 28.3215 13.5144 28.3718C15.8968 28.3718 17.8738 26.4622 17.8738 24.1002C17.8738 22.5046 17.1514 21.5749 16.2137 20.8085C15.542 20.2432 15.542 20.2432 15.1239 19.8287C13.9833 18.5975 13.6665 16.6878 14.4522 15.0922C15.4787 12.9816 18.0765 12.0645 20.2055 13.0821H20.2562L20.3576 13.1952C20.6238 13.3459 20.8771 13.4967 21.0926 13.66ZM110.962 0.686035C108.659 0.783866 106.894 2.65445 106.894 4.95357V32.6936C106.894 33.8746 107.046 34.7037 108.136 35.7339C108.972 36.5003 110.062 36.9651 111.152 36.9651C112.242 36.9651 113.332 36.5505 114.155 35.7339L131.542 18.4969C133.202 16.8385 133.202 14.1123 131.542 12.4665C129.882 10.8207 127.183 10.8207 125.472 12.4665L115.41 22.4544V4.95357C115.41 2.65445 113.633 0.783866 111.341 0.686035H110.962ZM77.6662 18.4969L67.6043 28.4723H75.436C77.7676 28.4723 79.6939 30.382 79.6939 32.7437C79.6939 35.0555 77.7676 36.9651 75.436 36.9651H57.9986C55.6541 36.9651 53.7407 35.0555 53.7407 32.7437V32.2789C53.69 31.098 54.1081 29.8668 54.9826 28.9873L71.5962 12.4665C73.307 10.8207 76.0063 10.8207 77.6662 12.4665C79.3263 14.1625 79.3263 16.8385 77.6662 18.4969ZM44.2907 11.2353C46.6225 11.2855 48.498 13.1952 48.498 15.4566C48.498 17.8185 46.5718 19.7282 44.24 19.7282H44.5062C42.2125 19.7282 40.4003 21.4242 40.2483 23.6353V32.7437C40.2483 35.0555 38.322 36.9651 35.9397 36.9651C33.5952 36.9651 31.6817 35.0555 31.6817 32.7437V15.5068C31.6817 13.1449 33.5952 11.2353 35.9397 11.2353C37.1309 11.2353 38.17 11.7001 38.943 12.4665C40.6031 11.7001 42.428 11.2855 44.2907 11.2353ZM62.2565 15.5068C62.2565 17.8185 60.3304 19.7282 57.9986 19.7282C55.6036 19.7282 53.69 17.8185 53.69 15.5068C53.69 13.1449 55.6036 11.2353 57.9986 11.2353C60.3304 11.2353 62.2565 13.1449 62.2565 15.5068ZM97.4948 11.2353C99.8266 11.2855 101.702 13.1952 101.702 15.4566C101.702 17.8185 99.7759 19.7282 97.4442 19.7282H97.7103C95.4165 19.7282 93.6045 21.4242 93.4524 23.6353V32.7437C93.4524 35.0555 91.5262 36.9651 89.1437 36.9651C86.7993 36.9651 84.8858 35.0555 84.8858 32.7437V15.5068C84.8858 13.1449 86.7993 11.2353 89.1437 11.2353C90.335 11.2353 91.3741 11.7001 92.147 12.4665C93.8071 11.7001 95.632 11.2855 97.4948 11.2353ZM124.23 32.7439C124.23 30.382 126.143 28.4723 128.539 28.4723C130.87 28.4723 132.797 30.382 132.797 32.7439C132.797 35.0555 130.87 36.9651 128.539 36.9651C126.143 36.9651 124.23 35.0555 124.23 32.7439Z" fill="white"/>
</svg>
